<svg id="visual" viewBox="0 0 960 540" width="960" height="540" xmlns="http://www.w3.org/2000/svg" xmlns:xlink="http://www.w3.org/1999/xlink" version="1.1"><rect x="0" y="0" width="960" height="540" fill="#FF0066"></rect><g transform="translate(455.3732756127696 299.0036908910098)"><path d="M113.1 -209.9C136.2 -182.6 137.4 -131.3 158.7 -92.3C180 -53.3 221.5 -26.7 228.2 3.8C234.8 34.3 206.6 68.7 174 88.2C141.4 107.6 104.5 112.3 74.7 129.4C45 146.6 22.5 176.3 -2.2 180.2C-27 184.1 -54 162.2 -76.8 141C-99.6 119.9 -118.2 99.4 -136.2 76C-154.2 52.7 -171.6 26.3 -177.5 -3.4C-183.4 -33.2 -177.9 -66.3 -167.3 -102.6C-156.7 -138.8 -141.1 -178.1 -112.4 -202.2C-83.7 -226.2 -41.8 -235.1 1.6 -237.9C45 -240.6 90 -237.2 113.1 -209.9" fill="#BB004B"></path></g></svg>