<svg id="visual" viewBox="0 0 960 540" width="960" height="540" xmlns="http://www.w3.org/2000/svg" xmlns:xlink="http://www.w3.org/1999/xlink" version="1.1"><rect x="0" y="0" width="960" height="540" fill="#001220"></rect><path d="M0 394L22.8 389.7C45.7 385.3 91.3 376.7 137 376C182.7 375.3 228.3 382.7 274 380.8C319.7 379 365.3 368 411.2 359.3C457 350.7 503 344.3 548.8 337.8C594.7 331.3 640.3 324.7 686 333.3C731.7 342 777.3 366 823 366C868.7 366 914.3 342 937.2 330L960 318L960 541L937.2 541C914.3 541 868.7 541 823 541C777.3 541 731.7 541 686 541C640.3 541 594.7 541 548.8 541C503 541 457 541 411.2 541C365.3 541 319.7 541 274 541C228.3 541 182.7 541 137 541C91.3 541 45.7 541 22.8 541L0 541Z" fill="#fa7268"></path><path d="M0 354L22.8 365.8C45.7 377.7 91.3 401.3 137 413.8C182.7 426.3 228.3 427.7 274 423.3C319.7 419 365.3 409 411.2 400C457 391 503 383 548.8 385.7C594.7 388.3 640.3 401.7 686 410.5C731.7 419.3 777.3 423.7 823 414C868.7 404.3 914.3 380.7 937.2 368.8L960 357L960 541L937.2 541C914.3 541 868.7 541 823 541C777.3 541 731.7 541 686 541C640.3 541 594.7 541 548.8 541C503 541 457 541 411.2 541C365.3 541 319.7 541 274 541C228.3 541 182.7 541 137 541C91.3 541 45.7 541 22.8 541L0 541Z" fill="#ef5f67"></path><path d="M0 394L22.8 398.2C45.7 402.3 91.3 410.7 137 421C182.7 431.3 228.3 443.7 274 440.8C319.7 438 365.3 420 411.2 410.8C457 401.7 503 401.3 548.8 404.3C594.7 407.3 640.3 413.7 686 415C731.7 416.3 777.3 412.7 823 412.3C868.7 412 914.3 415 937.2 416.5L960 418L960 541L937.2 541C914.3 541 868.7 541 823 541C777.3 541 731.7 541 686 541C640.3 541 594.7 541 548.8 541C503 541 457 541 411.2 541C365.3 541 319.7 541 274 541C228.3 541 182.7 541 137 541C91.3 541 45.7 541 22.8 541L0 541Z" fill="#e34c67"></path><path d="M0 458L22.8 457.2C45.7 456.3 91.3 454.7 137 454.2C182.7 453.7 228.3 454.3 274 456.2C319.7 458 365.3 461 411.2 465.7C457 470.3 503 476.7 548.8 475.5C594.7 474.3 640.3 465.7 686 462.7C731.7 459.7 777.3 462.3 823 458.8C868.7 455.3 914.3 445.7 937.2 440.8L960 436L960 541L937.2 541C914.3 541 868.7 541 823 541C777.3 541 731.7 541 686 541C640.3 541 594.7 541 548.8 541C503 541 457 541 411.2 541C365.3 541 319.7 541 274 541C228.3 541 182.7 541 137 541C91.3 541 45.7 541 22.8 541L0 541Z" fill="#d53867"></path><path d="M0 510L22.8 510C45.7 510 91.3 510 137 507.5C182.7 505 228.3 500 274 493.8C319.7 487.7 365.3 480.3 411.2 478.8C457 477.3 503 481.7 548.8 486.2C594.7 490.7 640.3 495.3 686 499.5C731.7 503.7 777.3 507.3 823 509.3C868.7 511.3 914.3 511.7 937.2 511.8L960 512L960 541L937.2 541C914.3 541 868.7 541 823 541C777.3 541 731.7 541 686 541C640.3 541 594.7 541 548.8 541C503 541 457 541 411.2 541C365.3 541 319.7 541 274 541C228.3 541 182.7 541 137 541C91.3 541 45.7 541 22.8 541L0 541Z" fill="#c62368"></path></svg>