<svg id="visual" viewBox="0 0 900 200" width="900" height="200" xmlns="http://www.w3.org/2000/svg" xmlns:xlink="http://www.w3.org/1999/xlink" version="1.1"><rect x="0" y="0" width="900" height="200" fill="#001220"></rect><path d="M0 123L21.5 125.8C43 128.7 86 134.3 128.8 136C171.7 137.7 214.3 135.3 257.2 133C300 130.7 343 128.3 385.8 127.3C428.7 126.3 471.3 126.7 514.2 128C557 129.3 600 131.7 642.8 132.3C685.7 133 728.3 132 771.2 132.5C814 133 857 135 878.5 136L900 137L900 201L878.5 201C857 201 814 201 771.2 201C728.3 201 685.7 201 642.8 201C600 201 557 201 514.2 201C471.3 201 428.7 201 385.8 201C343 201 300 201 257.2 201C214.3 201 171.7 201 128.8 201C86 201 43 201 21.5 201L0 201Z" fill="#c62368"></path><path d="M0 133L21.5 133.3C43 133.7 86 134.3 128.8 138.3C171.7 142.3 214.3 149.7 257.2 152.5C300 155.3 343 153.7 385.8 151.3C428.7 149 471.3 146 514.2 145C557 144 600 145 642.8 143.7C685.7 142.3 728.3 138.7 771.2 137.3C814 136 857 137 878.5 137.5L900 138L900 201L878.5 201C857 201 814 201 771.2 201C728.3 201 685.7 201 642.8 201C600 201 557 201 514.2 201C471.3 201 428.7 201 385.8 201C343 201 300 201 257.2 201C214.3 201 171.7 201 128.8 201C86 201 43 201 21.5 201L0 201Z" fill="#d53867"></path><path d="M0 149L21.5 152C43 155 86 161 128.8 161C171.7 161 214.3 155 257.2 153.8C300 152.7 343 156.3 385.8 159.3C428.7 162.3 471.3 164.7 514.2 163.2C557 161.7 600 156.3 642.8 156.7C685.7 157 728.3 163 771.2 162.3C814 161.7 857 154.3 878.5 150.7L900 147L900 201L878.5 201C857 201 814 201 771.2 201C728.3 201 685.7 201 642.8 201C600 201 557 201 514.2 201C471.3 201 428.7 201 385.8 201C343 201 300 201 257.2 201C214.3 201 171.7 201 128.8 201C86 201 43 201 21.5 201L0 201Z" fill="#e34c67"></path><path d="M0 167L21.5 169.2C43 171.3 86 175.7 128.8 175.2C171.7 174.7 214.3 169.3 257.2 168.7C300 168 343 172 385.8 172.2C428.7 172.3 471.3 168.7 514.2 166.3C557 164 600 163 642.8 164.5C685.7 166 728.3 170 771.2 171C814 172 857 170 878.5 169L900 168L900 201L878.5 201C857 201 814 201 771.2 201C728.3 201 685.7 201 642.8 201C600 201 557 201 514.2 201C471.3 201 428.7 201 385.8 201C343 201 300 201 257.2 201C214.3 201 171.7 201 128.8 201C86 201 43 201 21.5 201L0 201Z" fill="#ef5f67"></path><path d="M0 178L21.5 178.8C43 179.7 86 181.3 128.8 183.5C171.7 185.7 214.3 188.3 257.2 187.5C300 186.7 343 182.3 385.8 181.2C428.7 180 471.3 182 514.2 182.8C557 183.7 600 183.3 642.8 183.8C685.7 184.3 728.3 185.7 771.2 186.3C814 187 857 187 878.5 187L900 187L900 201L878.5 201C857 201 814 201 771.2 201C728.3 201 685.7 201 642.8 201C600 201 557 201 514.2 201C471.3 201 428.7 201 385.8 201C343 201 300 201 257.2 201C214.3 201 171.7 201 128.8 201C86 201 43 201 21.5 201L0 201Z" fill="#fa7268"></path></svg>