<svg id="visual" viewBox="0 0 900 100" width="900" height="100" xmlns="http://www.w3.org/2000/svg" xmlns:xlink="http://www.w3.org/1999/xlink" version="1.1"><rect x="0" y="0" width="900" height="100" fill="#001220"></rect><path d="M0 24L16.7 27.7C33.3 31.3 66.7 38.7 100 41.7C133.3 44.7 166.7 43.3 200 42C233.3 40.7 266.7 39.3 300 38.5C333.3 37.7 366.7 37.3 400 34.3C433.3 31.3 466.7 25.7 500 22.5C533.3 19.3 566.7 18.7 600 19.3C633.3 20 666.7 22 700 23.7C733.3 25.3 766.7 26.7 800 28C833.3 29.3 866.7 30.7 883.3 31.3L900 32L900 101L883.3 101C866.7 101 833.3 101 800 101C766.7 101 733.3 101 700 101C666.7 101 633.3 101 600 101C566.7 101 533.3 101 500 101C466.7 101 433.3 101 400 101C366.7 101 333.3 101 300 101C266.7 101 233.3 101 200 101C166.7 101 133.3 101 100 101C66.7 101 33.3 101 16.7 101L0 101Z" fill="#c62368"></path><path d="M0 43L16.7 45.2C33.3 47.3 66.7 51.7 100 53.7C133.3 55.7 166.7 55.3 200 53.3C233.3 51.3 266.7 47.7 300 46.3C333.3 45 366.7 46 400 44.8C433.3 43.7 466.7 40.3 500 38.5C533.3 36.7 566.7 36.3 600 39.5C633.3 42.7 666.7 49.3 700 49C733.3 48.7 766.7 41.3 800 38.3C833.3 35.3 866.7 36.7 883.3 37.3L900 38L900 101L883.3 101C866.7 101 833.3 101 800 101C766.7 101 733.3 101 700 101C666.7 101 633.3 101 600 101C566.7 101 533.3 101 500 101C466.7 101 433.3 101 400 101C366.7 101 333.3 101 300 101C266.7 101 233.3 101 200 101C166.7 101 133.3 101 100 101C66.7 101 33.3 101 16.7 101L0 101Z" fill="#d23467"></path><path d="M0 48L16.7 47C33.3 46 66.7 44 100 46.3C133.3 48.7 166.7 55.3 200 58C233.3 60.7 266.7 59.3 300 56.5C333.3 53.7 366.7 49.3 400 48.3C433.3 47.3 466.7 49.7 500 50.8C533.3 52 566.7 52 600 50.7C633.3 49.3 666.7 46.7 700 45.2C733.3 43.7 766.7 43.3 800 46.7C833.3 50 866.7 57 883.3 60.5L900 64L900 101L883.3 101C866.7 101 833.3 101 800 101C766.7 101 733.3 101 700 101C666.7 101 633.3 101 600 101C566.7 101 533.3 101 500 101C466.7 101 433.3 101 400 101C366.7 101 333.3 101 300 101C266.7 101 233.3 101 200 101C166.7 101 133.3 101 100 101C66.7 101 33.3 101 16.7 101L0 101Z" fill="#de4467"></path><path d="M0 58L16.7 59.5C33.3 61 66.7 64 100 65.3C133.3 66.7 166.7 66.3 200 67C233.3 67.7 266.7 69.3 300 67.8C333.3 66.3 366.7 61.7 400 61.3C433.3 61 466.7 65 500 65.7C533.3 66.3 566.7 63.7 600 63.3C633.3 63 666.7 65 700 63.7C733.3 62.3 766.7 57.7 800 57.7C833.3 57.7 866.7 62.3 883.3 64.7L900 67L900 101L883.3 101C866.7 101 833.3 101 800 101C766.7 101 733.3 101 700 101C666.7 101 633.3 101 600 101C566.7 101 533.3 101 500 101C466.7 101 433.3 101 400 101C366.7 101 333.3 101 300 101C266.7 101 233.3 101 200 101C166.7 101 133.3 101 100 101C66.7 101 33.3 101 16.7 101L0 101Z" fill="#e85467"></path><path d="M0 77L16.7 75.2C33.3 73.3 66.7 69.7 100 70.3C133.3 71 166.7 76 200 77.7C233.3 79.3 266.7 77.7 300 76.7C333.3 75.7 366.7 75.3 400 73.8C433.3 72.3 466.7 69.7 500 71C533.3 72.3 566.7 77.7 600 77.8C633.3 78 666.7 73 700 72C733.3 71 766.7 74 800 76.3C833.3 78.7 866.7 80.3 883.3 81.2L900 82L900 101L883.3 101C866.7 101 833.3 101 800 101C766.7 101 733.3 101 700 101C666.7 101 633.3 101 600 101C566.7 101 533.3 101 500 101C466.7 101 433.3 101 400 101C366.7 101 333.3 101 300 101C266.7 101 233.3 101 200 101C166.7 101 133.3 101 100 101C66.7 101 33.3 101 16.7 101L0 101Z" fill="#f16367"></path><path d="M0 88L16.7 86.7C33.3 85.3 66.7 82.7 100 81.8C133.3 81 166.7 82 200 81.7C233.3 81.3 266.7 79.7 300 80.7C333.3 81.7 366.7 85.3 400 87.2C433.3 89 466.7 89 500 87.3C533.3 85.7 566.7 82.3 600 82.7C633.3 83 666.7 87 700 88.2C733.3 89.3 766.7 87.7 800 87.5C833.3 87.3 866.7 88.7 883.3 89.3L900 90L900 101L883.3 101C866.7 101 833.3 101 800 101C766.7 101 733.3 101 700 101C666.7 101 633.3 101 600 101C566.7 101 533.3 101 500 101C466.7 101 433.3 101 400 101C366.7 101 333.3 101 300 101C266.7 101 233.3 101 200 101C166.7 101 133.3 101 100 101C66.7 101 33.3 101 16.7 101L0 101Z" fill="#fa7268"></path></svg>