<svg id="visual" viewBox="0 0 900 100" width="900" height="100" xmlns="http://www.w3.org/2000/svg" xmlns:xlink="http://www.w3.org/1999/xlink" version="1.1"><rect x="0" y="0" width="900" height="100" fill="#001220"></rect><path d="M0 11L16.7 14.5C33.3 18 66.7 25 100 32C133.3 39 166.7 46 200 42.8C233.3 39.7 266.7 26.3 300 19.8C333.3 13.3 366.7 13.7 400 18.5C433.3 23.3 466.7 32.7 500 33.3C533.3 34 566.7 26 600 20.5C633.3 15 666.7 12 700 9.8C733.3 7.7 766.7 6.3 800 10C833.3 13.7 866.7 22.3 883.3 26.7L900 31L900 101L883.3 101C866.7 101 833.3 101 800 101C766.7 101 733.3 101 700 101C666.7 101 633.3 101 600 101C566.7 101 533.3 101 500 101C466.7 101 433.3 101 400 101C366.7 101 333.3 101 300 101C266.7 101 233.3 101 200 101C166.7 101 133.3 101 100 101C66.7 101 33.3 101 16.7 101L0 101Z" fill="#f7770f"></path><path d="M0 21L16.7 26.5C33.3 32 66.7 43 100 49.5C133.3 56 166.7 58 200 56.2C233.3 54.3 266.7 48.7 300 41.8C333.3 35 366.7 27 400 25.7C433.3 24.3 466.7 29.7 500 35C533.3 40.3 566.7 45.7 600 46.7C633.3 47.7 666.7 44.3 700 43.2C733.3 42 766.7 43 800 41.7C833.3 40.3 866.7 36.7 883.3 34.8L900 33L900 101L883.3 101C866.7 101 833.3 101 800 101C766.7 101 733.3 101 700 101C666.7 101 633.3 101 600 101C566.7 101 533.3 101 500 101C466.7 101 433.3 101 400 101C366.7 101 333.3 101 300 101C266.7 101 233.3 101 200 101C166.7 101 133.3 101 100 101C66.7 101 33.3 101 16.7 101L0 101Z" fill="#f88015"></path><path d="M0 52L16.7 51.8C33.3 51.7 66.7 51.3 100 49C133.3 46.7 166.7 42.3 200 43.2C233.3 44 266.7 50 300 50.2C333.3 50.3 366.7 44.7 400 44.8C433.3 45 466.7 51 500 52C533.3 53 566.7 49 600 49.2C633.3 49.3 666.7 53.7 700 55.7C733.3 57.7 766.7 57.3 800 53.5C833.3 49.7 866.7 42.3 883.3 38.7L900 35L900 101L883.3 101C866.7 101 833.3 101 800 101C766.7 101 733.3 101 700 101C666.7 101 633.3 101 600 101C566.7 101 533.3 101 500 101C466.7 101 433.3 101 400 101C366.7 101 333.3 101 300 101C266.7 101 233.3 101 200 101C166.7 101 133.3 101 100 101C66.7 101 33.3 101 16.7 101L0 101Z" fill="#f9881b"></path><path d="M0 59L16.7 59.8C33.3 60.7 66.7 62.3 100 58.7C133.3 55 166.7 46 200 46.3C233.3 46.7 266.7 56.3 300 61C333.3 65.7 366.7 65.3 400 64C433.3 62.7 466.7 60.3 500 59.7C533.3 59 566.7 60 600 57.5C633.3 55 666.7 49 700 45.2C733.3 41.3 766.7 39.7 800 42.7C833.3 45.7 866.7 53.3 883.3 57.2L900 61L900 101L883.3 101C866.7 101 833.3 101 800 101C766.7 101 733.3 101 700 101C666.7 101 633.3 101 600 101C566.7 101 533.3 101 500 101C466.7 101 433.3 101 400 101C366.7 101 333.3 101 300 101C266.7 101 233.3 101 200 101C166.7 101 133.3 101 100 101C66.7 101 33.3 101 16.7 101L0 101Z" fill="#fa9021"></path><path d="M0 61L16.7 62.8C33.3 64.7 66.7 68.3 100 70.2C133.3 72 166.7 72 200 71.3C233.3 70.7 266.7 69.3 300 65.5C333.3 61.7 366.7 55.3 400 53.5C433.3 51.7 466.7 54.3 500 56.3C533.3 58.3 566.7 59.7 600 59.2C633.3 58.7 666.7 56.3 700 57C733.3 57.7 766.7 61.3 800 62C833.3 62.7 866.7 60.3 883.3 59.2L900 58L900 101L883.3 101C866.7 101 833.3 101 800 101C766.7 101 733.3 101 700 101C666.7 101 633.3 101 600 101C566.7 101 533.3 101 500 101C466.7 101 433.3 101 400 101C366.7 101 333.3 101 300 101C266.7 101 233.3 101 200 101C166.7 101 133.3 101 100 101C66.7 101 33.3 101 16.7 101L0 101Z" fill="#fa9827"></path><path d="M0 59L16.7 62.7C33.3 66.3 66.7 73.7 100 77.2C133.3 80.7 166.7 80.3 200 77.5C233.3 74.7 266.7 69.3 300 67.5C333.3 65.7 366.7 67.3 400 70.5C433.3 73.7 466.7 78.3 500 77.5C533.3 76.7 566.7 70.3 600 69.3C633.3 68.3 666.7 72.7 700 73.7C733.3 74.7 766.7 72.3 800 70.2C833.3 68 866.7 66 883.3 65L900 64L900 101L883.3 101C866.7 101 833.3 101 800 101C766.7 101 733.3 101 700 101C666.7 101 633.3 101 600 101C566.7 101 533.3 101 500 101C466.7 101 433.3 101 400 101C366.7 101 333.3 101 300 101C266.7 101 233.3 101 200 101C166.7 101 133.3 101 100 101C66.7 101 33.3 101 16.7 101L0 101Z" fill="#fba02e"></path><path d="M0 81L16.7 81.3C33.3 81.7 66.7 82.3 100 80.3C133.3 78.3 166.7 73.7 200 74.5C233.3 75.3 266.7 81.7 300 84.7C333.3 87.7 366.7 87.3 400 84.8C433.3 82.3 466.7 77.7 500 76C533.3 74.3 566.7 75.7 600 77.8C633.3 80 666.7 83 700 83C733.3 83 766.7 80 800 78.8C833.3 77.7 866.7 78.3 883.3 78.7L900 79L900 101L883.3 101C866.7 101 833.3 101 800 101C766.7 101 733.3 101 700 101C666.7 101 633.3 101 600 101C566.7 101 533.3 101 500 101C466.7 101 433.3 101 400 101C366.7 101 333.3 101 300 101C266.7 101 233.3 101 200 101C166.7 101 133.3 101 100 101C66.7 101 33.3 101 16.7 101L0 101Z" fill="#fba735"></path><path d="M0 86L16.7 86.8C33.3 87.7 66.7 89.3 100 88.3C133.3 87.3 166.7 83.7 200 84.2C233.3 84.7 266.7 89.3 300 90.3C333.3 91.3 366.7 88.7 400 88.3C433.3 88 466.7 90 500 90C533.3 90 566.7 88 600 88C633.3 88 666.7 90 700 89.7C733.3 89.3 766.7 86.7 800 84.7C833.3 82.7 866.7 81.3 883.3 80.7L900 80L900 101L883.3 101C866.7 101 833.3 101 800 101C766.7 101 733.3 101 700 101C666.7 101 633.3 101 600 101C566.7 101 533.3 101 500 101C466.7 101 433.3 101 400 101C366.7 101 333.3 101 300 101C266.7 101 233.3 101 200 101C166.7 101 133.3 101 100 101C66.7 101 33.3 101 16.7 101L0 101Z" fill="#fcaf3c"></path></svg>