<svg id="visual" viewBox="0 0 900 100" width="900" height="100" xmlns="http://www.w3.org/2000/svg" xmlns:xlink="http://www.w3.org/1999/xlink" version="1.1"><rect x="0" y="0" width="900" height="100" fill="#001220"></rect><path d="M0 22L16.7 25C33.3 28 66.7 34 100 33.8C133.3 33.7 166.7 27.3 200 24C233.3 20.7 266.7 20.3 300 22.5C333.3 24.7 366.7 29.3 400 33.5C433.3 37.7 466.7 41.3 500 38.8C533.3 36.3 566.7 27.7 600 23.2C633.3 18.7 666.7 18.3 700 19.8C733.3 21.3 766.7 24.7 800 29C833.3 33.3 866.7 38.7 883.3 41.3L900 44L900 101L883.3 101C866.7 101 833.3 101 800 101C766.7 101 733.3 101 700 101C666.7 101 633.3 101 600 101C566.7 101 533.3 101 500 101C466.7 101 433.3 101 400 101C366.7 101 333.3 101 300 101C266.7 101 233.3 101 200 101C166.7 101 133.3 101 100 101C66.7 101 33.3 101 16.7 101L0 101Z" fill="#8c7dea"></path><path d="M0 37L16.7 39.3C33.3 41.7 66.7 46.3 100 48.2C133.3 50 166.7 49 200 47.5C233.3 46 266.7 44 300 44.5C333.3 45 366.7 48 400 46.7C433.3 45.3 466.7 39.7 500 36.5C533.3 33.3 566.7 32.7 600 31.8C633.3 31 666.7 30 700 32.3C733.3 34.7 766.7 40.3 800 42.5C833.3 44.7 866.7 43.3 883.3 42.7L900 42L900 101L883.3 101C866.7 101 833.3 101 800 101C766.7 101 733.3 101 700 101C666.7 101 633.3 101 600 101C566.7 101 533.3 101 500 101C466.7 101 433.3 101 400 101C366.7 101 333.3 101 300 101C266.7 101 233.3 101 200 101C166.7 101 133.3 101 100 101C66.7 101 33.3 101 16.7 101L0 101Z" fill="#836df0"></path><path d="M0 40L16.7 42C33.3 44 66.7 48 100 50.5C133.3 53 166.7 54 200 54.8C233.3 55.7 266.7 56.3 300 56.7C333.3 57 366.7 57 400 55C433.3 53 466.7 49 500 48.2C533.3 47.3 566.7 49.7 600 49.8C633.3 50 666.7 48 700 47.2C733.3 46.3 766.7 46.7 800 46.8C833.3 47 866.7 47 883.3 47L900 47L900 101L883.3 101C866.7 101 833.3 101 800 101C766.7 101 733.3 101 700 101C666.7 101 633.3 101 600 101C566.7 101 533.3 101 500 101C466.7 101 433.3 101 400 101C366.7 101 333.3 101 300 101C266.7 101 233.3 101 200 101C166.7 101 133.3 101 100 101C66.7 101 33.3 101 16.7 101L0 101Z" fill="#7a5cf6"></path><path d="M0 65L16.7 65.5C33.3 66 66.7 67 100 67.7C133.3 68.3 166.7 68.7 200 68.2C233.3 67.7 266.7 66.3 300 65.8C333.3 65.3 366.7 65.7 400 65.3C433.3 65 466.7 64 500 63.7C533.3 63.3 566.7 63.7 600 62.8C633.3 62 666.7 60 700 61.2C733.3 62.3 766.7 66.7 800 67.3C833.3 68 866.7 65 883.3 63.5L900 62L900 101L883.3 101C866.7 101 833.3 101 800 101C766.7 101 733.3 101 700 101C666.7 101 633.3 101 600 101C566.7 101 533.3 101 500 101C466.7 101 433.3 101 400 101C366.7 101 333.3 101 300 101C266.7 101 233.3 101 200 101C166.7 101 133.3 101 100 101C66.7 101 33.3 101 16.7 101L0 101Z" fill="#7249fa"></path><path d="M0 74L16.7 74.8C33.3 75.7 66.7 77.3 100 76.7C133.3 76 166.7 73 200 72.2C233.3 71.3 266.7 72.7 300 72.8C333.3 73 366.7 72 400 73.2C433.3 74.3 466.7 77.7 500 79C533.3 80.3 566.7 79.7 600 77.8C633.3 76 666.7 73 700 71C733.3 69 766.7 68 800 68.7C833.3 69.3 866.7 71.7 883.3 72.8L900 74L900 101L883.3 101C866.7 101 833.3 101 800 101C766.7 101 733.3 101 700 101C666.7 101 633.3 101 600 101C566.7 101 533.3 101 500 101C466.7 101 433.3 101 400 101C366.7 101 333.3 101 300 101C266.7 101 233.3 101 200 101C166.7 101 133.3 101 100 101C66.7 101 33.3 101 16.7 101L0 101Z" fill="#6b31fd"></path><path d="M0 82L16.7 82.2C33.3 82.3 66.7 82.7 100 84.2C133.3 85.7 166.7 88.3 200 89.7C233.3 91 266.7 91 300 91.2C333.3 91.3 366.7 91.7 400 91.7C433.3 91.7 466.7 91.3 500 91.2C533.3 91 566.7 91 600 89.3C633.3 87.7 666.7 84.3 700 83.8C733.3 83.3 766.7 85.7 800 87.5C833.3 89.3 866.7 90.7 883.3 91.3L900 92L900 101L883.3 101C866.7 101 833.3 101 800 101C766.7 101 733.3 101 700 101C666.7 101 633.3 101 600 101C566.7 101 533.3 101 500 101C466.7 101 433.3 101 400 101C366.7 101 333.3 101 300 101C266.7 101 233.3 101 200 101C166.7 101 133.3 101 100 101C66.7 101 33.3 101 16.7 101L0 101Z" fill="#6600ff"></path></svg>